<svg aria-hidden="true" style="position: absolute; width: 0; height: 0; overflow: hidden;" version="1.1" xmlns="http://www.w3.org/2000/svg" xmlns:xlink="http://www.w3.org/1999/xlink">
<defs>
<symbol id="icon-warning" viewBox="0 0 24 24">
<path d="M12.984 14.016v-4.031h-1.969v4.031h1.969zM12.984 18v-2.016h-1.969v2.016h1.969zM0.984 21l11.016-18.984 11.016 18.984h-22.031z"></path>
</symbol>
<symbol id="icon-menu" viewBox="0 0 24 24">
<path d="M3 6h18v2.016h-18v-2.016zM3 12.984v-1.969h18v1.969h-18zM3 18v-2.016h18v2.016h-18z"></path>
</symbol>
<symbol id="icon-delete" viewBox="0 0 24 24">
<path d="M18.984 3.984v2.016h-13.969v-2.016h3.469l1.031-0.984h4.969l1.031 0.984h3.469zM6 18.984v-12h12v12q0 0.797-0.609 1.406t-1.406 0.609h-7.969q-0.797 0-1.406-0.609t-0.609-1.406z"></path>
</symbol>
<symbol id="icon-home" viewBox="0 0 32 32">
<path d="M32 18.451l-16-12.42-16 12.42v-5.064l16-12.42 16 12.42zM28 18v12h-8v-8h-8v8h-8v-12l12-9z"></path>
</symbol>
<symbol id="icon-cross" viewBox="0 0 32 32">
<path d="M31.708 25.708c-0-0-0-0-0-0l-9.708-9.708 9.708-9.708c0-0 0-0 0-0 0.105-0.105 0.18-0.227 0.229-0.357 0.133-0.356 0.057-0.771-0.229-1.057l-4.586-4.586c-0.286-0.286-0.702-0.361-1.057-0.229-0.13 0.048-0.252 0.124-0.357 0.228 0 0-0 0-0 0l-9.708 9.708-9.708-9.708c-0-0-0-0-0-0-0.105-0.104-0.227-0.18-0.357-0.228-0.356-0.133-0.771-0.057-1.057 0.229l-4.586 4.586c-0.286 0.286-0.361 0.702-0.229 1.057 0.049 0.13 0.124 0.252 0.229 0.357 0 0 0 0 0 0l9.708 9.708-9.708 9.708c-0 0-0 0-0 0-0.104 0.105-0.18 0.227-0.229 0.357-0.133 0.355-0.057 0.771 0.229 1.057l4.586 4.586c0.286 0.286 0.702 0.361 1.057 0.229 0.13-0.049 0.252-0.124 0.357-0.229 0-0 0-0 0-0l9.708-9.708 9.708 9.708c0 0 0 0 0 0 0.105 0.105 0.227 0.18 0.357 0.229 0.356 0.133 0.771 0.057 1.057-0.229l4.586-4.586c0.286-0.286 0.362-0.702 0.229-1.057-0.049-0.13-0.124-0.252-0.229-0.357z"></path>
</symbol>
<symbol id="icon-checkmark" viewBox="0 0 32 32">
<path d="M27 4l-15 15-7-7-5 5 12 12 20-20z"></path>
</symbol>
<symbol id="icon-enter" viewBox="0 0 32 32">
<path d="M12 16h-10v-4h10v-4l6 6-6 6zM32 0v26l-12 6v-6h-12v-8h2v6h10v-18l8-4h-18v8h-2v-10z"></path>
</symbol>
<symbol id="icon-exit" viewBox="0 0 32 32">
<path d="M24 20v-4h-10v-4h10v-4l6 6zM22 18v8h-10v6l-12-6v-26h22v10h-2v-8h-16l8 4v18h8v-6z"></path>
</symbol>
</defs>
</svg>
